<?xml version="1.0" encoding="UTF-8" standalone="no"?>
<svg
   width="48"
   height="48"
   viewBox="0 0 48 48"
   fill="currentColor"
   class="icon icon-tabler icons-tabler-filled icon-tabler-file"
   version="1.1"
   id="svg8"
   sodipodi:docname="file.svg"
   inkscape:version="1.2.2 (b0a8486541, 2022-12-01)"
   xmlns:inkscape="http://www.inkscape.org/namespaces/inkscape"
   xmlns:sodipodi="http://sodipodi.sourceforge.net/DTD/sodipodi-0.dtd"
   xmlns="http://www.w3.org/2000/svg"
   xmlns:svg="http://www.w3.org/2000/svg">
  <defs
     id="defs12" />
  <sodipodi:namedview
     id="namedview10"
     pagecolor="#505050"
     bordercolor="#ffffff"
     borderopacity="1"
     inkscape:showpageshadow="0"
     inkscape:pageopacity="0"
     inkscape:pagecheckerboard="1"
     inkscape:deskcolor="#505050"
     showgrid="false"
     inkscape:zoom="12.551145"
     inkscape:cx="9.7600654"
     inkscape:cy="19.281109"
     inkscape:window-width="1920"
     inkscape:window-height="1031"
     inkscape:window-x="0"
     inkscape:window-y="0"
     inkscape:window-maximized="1"
     inkscape:current-layer="svg8" />
  <path
     stroke="none"
     d="M 0,0 H 47.975354 V 47.975354 H 0 Z"
     fill="none"
     id="path2"
     style="stroke-width:1.99897" />
  <path
     d="m 23.987677,3.9979462 0.23388,0.013993 a 1.9989731,1.9989731 0 0 1 1.7511,1.7511004 l 0.01399,0.2338798 v 7.9958926 l 0.01,0.299846 a 3.9979462,3.9979462 0 0 0 3.674112,3.686106 l 0.313839,0.01199 h 7.995892 l 0.23388,0.01399 a 1.9989731,1.9989731 0 0 1 1.751101,1.7511 l 0.01399,0.23388 v 17.990757 a 5.9969192,5.9969192 0 0 1 -5.6451,5.986925 l -0.35182,0.01 h -19.98973 a 5.9969192,5.9969192 0 0 1 -5.9869248,-5.6451 l -0.00999,-0.35182 V 9.9948654 A 5.9969192,5.9969192 0 0 1 13.640992,4.007941 l 0.35182,-0.00999 z"
     id="path4"
     style="stroke-width:1.99897;fill:#ffffff;fill-opacity:1" />
  <path
     d="m 37.980488,13.992812 h -7.995892 l -0.002,-7.9978917 z"
     id="path6"
     style="stroke-width:1.99897;fill:#ffffff;fill-opacity:1" />
</svg>
