<?xml version="1.0" encoding="UTF-8" standalone="no"?>
<svg
   width="24"
   height="24"
   viewBox="0 0 24 24"
   fill="currentColor"
   class="icon icon-tabler icons-tabler-filled icon-tabler-file-code"
   version="1.1"
   id="svg8"
   sodipodi:docname="scriptAdd.svg"
   inkscape:version="1.2.2 (b0a8486541, 2022-12-01)"
   xmlns:inkscape="http://www.inkscape.org/namespaces/inkscape"
   xmlns:sodipodi="http://sodipodi.sourceforge.net/DTD/sodipodi-0.dtd"
   xmlns="http://www.w3.org/2000/svg"
   xmlns:svg="http://www.w3.org/2000/svg">
  <defs
     id="defs12" />
  <sodipodi:namedview
     id="namedview10"
     pagecolor="#505050"
     bordercolor="#ffffff"
     borderopacity="1"
     inkscape:showpageshadow="0"
     inkscape:pageopacity="0"
     inkscape:pagecheckerboard="1"
     inkscape:deskcolor="#505050"
     showgrid="false"
     inkscape:zoom="25.102291"
     inkscape:cx="10.337702"
     inkscape:cy="13.464907"
     inkscape:window-width="1920"
     inkscape:window-height="1031"
     inkscape:window-x="0"
     inkscape:window-y="0"
     inkscape:window-maximized="1"
     inkscape:current-layer="svg8" />
  <path
     id="path452"
     style="fill:#ffffff;fill-opacity:1"
     d="M 7 2 L 6.8242188 2.0058594 C 5.2383988 2.0990547 3.9999115 3.411444 4 5 L 4 19 L 4.0058594 19.175781 C 4.0990547 20.761602 5.411444 22.000088 7 22 L 17 22 L 17.175781 21.994141 C 18.761602 21.900946 20.000088 20.588556 20 19 L 20 10 L 19.992188 9.8828125 C 19.938 9.423322 19.576678 9.0620004 19.117188 9.0078125 L 19 9 L 15 9 L 14.84375 8.9941406 C 13.860105 8.9169951 13.079799 8.1342817 13.005859 7.1503906 L 13 7 L 13 3 L 12.992188 2.8828125 C 12.938 2.423322 12.576678 2.0620004 12.117188 2.0078125 L 12 2 L 7 2 z M 11.833984 10.859375 L 12.222656 10.859375 A 1.1418835 1.1418835 0 0 1 13.367188 11.998047 L 13.367188 13.511719 L 14.880859 13.511719 A 1.1418835 1.1418835 0 0 1 16.017578 14.650391 L 16.017578 15.044922 A 1.1418835 1.1418835 0 0 1 14.880859 16.183594 L 13.367188 16.183594 L 13.367188 17.697266 A 1.1418835 1.1418835 0 0 1 12.222656 18.839844 L 11.833984 18.839844 A 1.1418835 1.1418835 0 0 1 10.689453 17.697266 L 10.689453 16.183594 L 9.1816406 16.183594 A 1.1418835 1.1418835 0 0 1 8.0371094 15.044922 L 8.0371094 14.650391 A 1.1418835 1.1418835 0 0 1 9.1816406 13.511719 L 10.689453 13.511719 L 10.689453 11.998047 A 1.1418835 1.1418835 0 0 1 11.833984 10.859375 z " />
  <path
     stroke="none"
     d="M0 0h24v24H0z"
     fill="none"
     id="path2" />
  <path
     d="M19 7h-4l-.001 -4.001z"
     id="path6"
     style="fill:#ffffff;fill-opacity:1" />
</svg>
