<?xml version="1.0" encoding="UTF-8" standalone="no"?>
<svg
   width="24"
   height="24"
   viewBox="0 0 24 24"
   fill="currentColor"
   class="icon icon-tabler icons-tabler-filled icon-tabler-file-code"
   version="1.1"
   id="svg8"
   sodipodi:docname="scriptCpp.svg"
   inkscape:version="1.2.2 (b0a8486541, 2022-12-01)"
   xmlns:inkscape="http://www.inkscape.org/namespaces/inkscape"
   xmlns:sodipodi="http://sodipodi.sourceforge.net/DTD/sodipodi-0.dtd"
   xmlns="http://www.w3.org/2000/svg"
   xmlns:svg="http://www.w3.org/2000/svg">
  <defs
     id="defs12">
    <inkscape:path-effect
       effect="powerclip"
       id="path-effect3481"
       is_visible="true"
       lpeversion="1"
       inverse="true"
       flatten="false"
       hide_clip="false"
       message="Use fill-rule evenodd on &lt;b&gt;fill and stroke&lt;/b&gt; dialog if no flatten result after convert clip to paths." />
    <inkscape:path-effect
       effect="powerclip"
       id="path-effect2728"
       is_visible="true"
       lpeversion="1"
       inverse="true"
       flatten="false"
       hide_clip="false"
       message="Use fill-rule evenodd on &lt;b&gt;fill and stroke&lt;/b&gt; dialog if no flatten result after convert clip to paths." />
  </defs>
  <sodipodi:namedview
     id="namedview10"
     pagecolor="#505050"
     bordercolor="#ffffff"
     borderopacity="1"
     inkscape:showpageshadow="0"
     inkscape:pageopacity="0"
     inkscape:pagecheckerboard="1"
     inkscape:deskcolor="#505050"
     showgrid="false"
     inkscape:zoom="50.204581"
     inkscape:cx="10.845624"
     inkscape:cy="14.241728"
     inkscape:window-width="1920"
     inkscape:window-height="1031"
     inkscape:window-x="0"
     inkscape:window-y="0"
     inkscape:window-maximized="1"
     inkscape:current-layer="svg8" />
  <path
     id="path452"
     clip-path="none"
     style="fill:#ffffff;fill-opacity:1"
     d="M 7 2 L 6.8242188 2.0058594 C 5.2383988 2.0990547 3.9999115 3.411444 4 5 L 4 19 L 4.0058594 19.175781 C 4.0990547 20.761602 5.411444 22.000088 7 22 L 17 22 L 17.175781 21.994141 C 18.761602 21.900946 20.000088 20.588556 20 19 L 20 10 L 19.992188 9.8828125 C 19.938 9.423322 19.576678 9.0620004 19.117188 9.0078125 L 19 9 L 15 9 L 14.84375 8.9941406 C 13.860105 8.9169951 13.079799 8.1342817 13.005859 7.1503906 L 13 7 L 13 3 L 12.992188 2.8828125 C 12.938 2.423322 12.576678 2.0620004 12.117188 2.0078125 L 12 2 L 7 2 z M 9.7597656 11.689453 C 10.424377 11.689453 11.032334 11.814018 11.560547 12.078125 A 0.50005 0.50005 0 0 1 11.787109 12.740234 L 11.5 13.347656 A 0.50005 0.50005 0 0 1 10.841797 13.589844 C 10.691085 13.521338 10.515876 13.456817 10.316406 13.398438 A 0.50005 0.50005 0 0 1 10.3125 13.396484 C 10.151893 13.348304 9.9662864 13.322266 9.7519531 13.322266 C 9.2502155 13.322266 8.9422086 13.461954 8.6835938 13.763672 C 8.4248631 14.065525 8.2753906 14.492426 8.2753906 15.125 C 8.2753906 15.755997 8.4172755 16.194434 8.65625 16.501953 C 8.8854701 16.785595 9.1936714 16.929688 9.7441406 16.929688 C 9.9664384 16.929688 10.172957 16.91125 10.363281 16.875 C 10.5708 16.835472 10.772261 16.785512 10.96875 16.726562 A 0.50005 0.50005 0 0 1 11.611328 17.205078 L 11.611328 17.830078 A 0.50005 0.50005 0 0 1 11.287109 18.298828 C 11.042566 18.390532 10.790265 18.45752 10.529297 18.5 L 10.53125 18.498047 C 10.269802 18.541617 9.9750653 18.5625 9.640625 18.5625 C 8.9904863 18.5625 8.405836 18.425286 7.921875 18.126953 C 7.4477722 17.834697 7.0810965 17.404524 6.8476562 16.880859 A 0.50005 0.50005 0 0 1 6.8457031 16.876953 C 6.6210341 16.358967 6.515625 15.76809 6.515625 15.117188 C 6.515625 14.481003 6.6323846 13.897033 6.8769531 13.382812 A 0.50005 0.50005 0 0 0 6.8769531 13.380859 C 7.1286629 12.858562 7.5154072 12.432314 8.0058594 12.138672 L 8.0078125 12.136719 C 8.5081271 11.832371 9.1034383 11.689453 9.7597656 11.689453 z M 12.943359 13.732422 L 13.085938 13.732422 A 0.42001937 0.42001937 0 0 1 13.507812 14.150391 L 13.507812 14.707031 L 14.064453 14.707031 A 0.42001937 0.42001937 0 0 1 14.482422 15.126953 L 14.482422 15.271484 A 0.42001937 0.42001937 0 0 1 14.064453 15.689453 L 13.507812 15.689453 L 13.507812 16.248047 A 0.42001937 0.42001937 0 0 1 13.085938 16.667969 L 12.943359 16.667969 A 0.42001937 0.42001937 0 0 1 12.523438 16.248047 L 12.523438 15.689453 L 11.96875 15.689453 A 0.42001937 0.42001937 0 0 1 11.546875 15.271484 L 11.546875 15.126953 A 0.42001937 0.42001937 0 0 1 11.96875 14.707031 L 12.523438 14.707031 L 12.523438 14.150391 A 0.42001937 0.42001937 0 0 1 12.943359 13.732422 z M 16.201172 13.732422 L 16.34375 13.732422 A 0.42001937 0.42001937 0 0 1 16.765625 14.150391 L 16.765625 14.707031 L 17.322266 14.707031 A 0.42001937 0.42001937 0 0 1 17.740234 15.126953 L 17.740234 15.271484 A 0.42001937 0.42001937 0 0 1 17.322266 15.689453 L 16.765625 15.689453 L 16.765625 16.248047 A 0.42001937 0.42001937 0 0 1 16.34375 16.667969 L 16.201172 16.667969 A 0.42001937 0.42001937 0 0 1 15.78125 16.248047 L 15.78125 15.689453 L 15.226562 15.689453 A 0.42001937 0.42001937 0 0 1 14.804688 15.271484 L 14.804688 15.126953 A 0.42001937 0.42001937 0 0 1 15.226562 14.707031 L 15.78125 14.707031 L 15.78125 14.150391 A 0.42001937 0.42001937 0 0 1 16.201172 13.732422 z " />
  <path
     stroke="none"
     d="M0 0h24v24H0z"
     fill="none"
     id="path2" />
  <path
     d="M19 7h-4l-.001 -4.001z"
     id="path6"
     style="fill:#ffffff;fill-opacity:1" />
</svg>
